<svg width="73" height="73" viewBox="0 0 73 73" fill="none" xmlns="http://www.w3.org/2000/svg">
<g clip-path="url(#clip0_445_15)">
<path d="M51.2464 36.049V37.864C50.9151 41.4897 49.2903 44.8751 46.6688 47.4016C44.0474 49.9281 40.6044 51.4269 36.969 51.6241H20.9758V51.2473L36.1739 36.049H51.2464Z" fill="#6EE7B7"/>
<path d="M36.1739 21.3242V36.049L20.9758 51.2473V36.049H20.9934C21.1025 32.2645 22.6236 28.6577 25.2576 25.9381C27.8916 23.2186 31.4478 21.583 35.2268 21.353C35.5321 21.3329 35.8385 21.3242 36.1488 21.3242H36.1739Z" fill="#34D399"/>
<path d="M66.1305 36.4886C66.1335 44.4404 62.9803 52.0683 57.3635 57.6969C51.7467 63.3256 44.1256 66.4948 36.1739 66.5084H36.1111C32.1685 66.5101 28.2641 65.7347 24.6213 64.2267C20.9784 62.7186 17.6685 60.5074 14.8806 57.7195C12.0927 54.9316 9.88155 51.6215 8.37352 47.9786C6.86549 44.3357 6.09015 40.4313 6.0918 36.4886C6.0918 36.3416 6.0918 36.1947 6.0918 36.049C6.20405 28.1626 9.41667 20.6375 15.0346 15.1017C20.6526 9.56594 28.2241 6.46462 36.1111 6.46872H36.1739C41.4718 6.47132 46.6738 7.8828 51.2464 10.5585V21.353H37.0707C36.7743 21.3338 36.4754 21.3242 36.1739 21.3242H36.1488C35.8386 21.3242 35.5321 21.3329 35.2269 21.353C31.4479 21.583 27.8916 23.2186 25.2576 25.9381C22.6236 28.6577 21.1025 32.2645 20.9934 36.049H20.9759V51.6241H36.969C40.6044 51.4269 44.0474 49.9281 46.6689 47.4016C49.2903 44.8751 50.9151 41.4897 51.2464 37.864V21.353H62.0408C64.652 25.8154 66.0599 30.8792 66.1267 36.049C66.1292 36.1947 66.1305 36.3416 66.1305 36.4886Z" fill="#D1FAE5"/>
<path d="M51.3092 21.2902H36.1111V36.1117H51.3092V21.2902Z" fill="#A7F3D0"/>
<path d="M72.2221 36.1116C72.2482 45.3067 68.7409 54.1606 62.425 60.8434C58.847 64.6377 54.4924 67.6151 49.6585 69.5724C44.8245 71.5296 39.6251 72.4206 34.4153 72.1844C27.4253 71.8558 20.6813 69.5033 15.0034 65.4129C9.32553 61.3225 4.95842 55.6705 2.43311 49.1442C-0.0921896 42.6179 -0.666887 35.4984 0.778906 28.6515C2.2247 21.8046 5.62869 15.5253 10.577 10.5771C16.9341 4.21937 25.4342 0.461595 34.4149 0.0385887C43.3957 -0.384417 52.2113 2.55777 59.1379 8.28982C59.8694 7.76698 60.7662 7.52838 61.6608 7.61859C62.5554 7.7088 63.3866 8.12166 63.9989 8.78001C64.6113 9.43837 64.9631 10.2972 64.9884 11.196C65.0137 12.0948 64.711 12.972 64.1367 13.6638C63.5624 14.3557 62.7558 14.8147 61.8677 14.9552C60.9796 15.0957 60.0708 14.908 59.311 14.4272C58.5512 13.9464 57.9924 13.2054 57.7391 12.3427C57.4859 11.48 57.5553 10.5545 57.9346 9.73931C50.2163 3.3334 40.0989 0.597701 29.7542 2.45416C25.1206 3.28558 20.7203 5.10451 16.8521 7.78739C5.65203 15.5624 0.160627 28.53 2.36372 41.9434C3.18838 46.96 5.15912 51.7186 8.12266 55.8493C16.0483 66.8926 29.0985 72.1844 42.5205 69.7602C47.1532 68.9223 51.5511 67.0965 55.415 64.4068C64.9571 57.7623 70.338 47.3533 70.338 36.1116C70.3494 31.4509 69.4006 26.8378 67.5509 22.5599C67.4509 22.3309 67.4461 22.0716 67.5373 21.8389C67.6286 21.6063 67.8086 21.4195 68.0376 21.3196C68.2666 21.2196 68.5259 21.2148 68.7586 21.306C68.9912 21.3973 69.178 21.5773 69.2779 21.8063C71.2317 26.3218 72.2339 31.1915 72.2221 36.1116Z" fill="#34D399"/>
</g>
<defs>
<clipPath id="clip0_445_15">
<rect width="72.2222" height="72.2222" fill="white"/>
</clipPath>
</defs>
</svg>
