<svg width="540" height="369" viewBox="0 0 540 369" fill="none" xmlns="http://www.w3.org/2000/svg">
<g clip-path="url(#clip0_3_59)">
<path d="M90.8248 91.3852C107.158 74.8571 127.494 63.1736 149.61 57.3451C163.342 53.7264 174.526 42.2712 174.526 28.0713C174.526 12.7732 161.686 0.378713 146.689 3.40004C111.529 10.4834 78.9945 27.8719 53.3477 53.6769C21.0432 86.1807 2.01029 129.68 0 175.603H53.0191C54.9241 143.814 68.3798 113.84 90.8248 91.3852Z" fill="#34D399"/>
<path d="M274.633 276.327C256.951 294.121 234.543 306.404 210.097 311.703C185.65 317.002 160.204 315.092 136.809 306.203C113.414 297.313 93.0653 281.821 78.2031 261.585C63.3409 241.349 54.5966 217.229 53.0191 192.117H0C1.57053 227.789 13.423 262.23 34.112 291.241C54.8011 320.252 83.4328 342.579 116.516 355.499C149.599 368.42 185.703 371.376 220.427 364.006C255.15 356.637 286.993 339.26 312.071 313.996C337.831 288.137 355.161 255.279 362.154 219.771C365.09 204.862 352.778 192.117 337.582 192.117C323.463 192.117 312.069 203.238 308.54 216.909C302.769 239.267 291.128 259.828 274.633 276.327Z" fill="#34D399"/>
<path d="M449.175 276.995C432.843 293.518 412.512 305.199 390.4 311.03C376.663 314.652 365.474 326.113 365.474 340.32C365.474 355.626 378.32 368.027 393.324 365.004C428.479 357.921 461.01 340.535 486.654 314.734C518.959 282.231 537.991 238.732 540 192.809H486.981C485.065 224.586 471.61 254.546 449.175 276.995Z" fill="#34D399"/>
<path d="M265.359 92.0448C283.042 74.2519 305.451 61.9697 329.899 56.6714C354.346 51.3731 379.794 53.2838 403.189 62.1741C426.584 71.0644 446.933 86.557 461.796 106.793C476.658 127.03 485.403 151.151 486.981 176.263H540C537.934 128.897 517.78 84.1603 483.737 51.3783C449.695 18.5964 404.392 0.298355 357.271 0.298355C310.15 0.298355 264.847 18.5964 230.805 51.3783C203.479 77.6926 185.102 111.71 177.845 148.606C174.913 163.517 187.224 176.263 202.421 176.263C216.539 176.263 227.931 165.144 231.458 151.473C237.228 129.113 248.867 108.549 265.359 92.0448Z" fill="#34D399"/>
</g>
<defs>
<clipPath id="clip0_3_59">
<rect width="540" height="368.372" fill="white"/>
</clipPath>
</defs>
</svg>
