<svg width="323" height="73" viewBox="0 0 323 73" fill="none" xmlns="http://www.w3.org/2000/svg">
<g clip-path="url(#clip0_445_41)">
<path d="M51.2464 36.049V37.864C50.9151 41.4897 49.2903 44.8751 46.6688 47.4016C44.0474 49.9281 40.6044 51.4269 36.969 51.6241H20.9758V51.2473L36.1739 36.049H51.2464Z" fill="#6EE7B7"/>
<path d="M36.1739 21.3242V36.049L20.9758 51.2473V36.049H20.9934C21.1025 32.2645 22.6236 28.6577 25.2576 25.9381C27.8916 23.2186 31.4478 21.583 35.2268 21.353C35.5321 21.3329 35.8385 21.3242 36.1488 21.3242H36.1739Z" fill="#34D399"/>
<path d="M66.1305 36.4886C66.1335 44.4404 62.9803 52.0683 57.3635 57.6969C51.7467 63.3256 44.1256 66.4948 36.1739 66.5084H36.1111C32.1685 66.5101 28.2641 65.7347 24.6213 64.2267C20.9784 62.7186 17.6685 60.5074 14.8806 57.7195C12.0927 54.9316 9.88155 51.6215 8.37352 47.9786C6.86549 44.3357 6.09015 40.4313 6.0918 36.4886C6.0918 36.3416 6.0918 36.1947 6.0918 36.049C6.20405 28.1626 9.41667 20.6375 15.0346 15.1017C20.6526 9.56594 28.2241 6.46462 36.1111 6.46872H36.1739C41.4718 6.47132 46.6738 7.8828 51.2464 10.5585V21.353H37.0707C36.7743 21.3338 36.4754 21.3242 36.1739 21.3242H36.1488C35.8386 21.3242 35.5321 21.3329 35.2269 21.353C31.4479 21.583 27.8916 23.2186 25.2576 25.9381C22.6236 28.6577 21.1025 32.2645 20.9934 36.049H20.9759V51.6241H36.969C40.6044 51.4269 44.0474 49.9281 46.6689 47.4016C49.2903 44.8751 50.9151 41.4897 51.2464 37.864V21.353H62.0408C64.652 25.8154 66.0599 30.8792 66.1267 36.049C66.1292 36.1947 66.1305 36.3416 66.1305 36.4886Z" fill="#D1FAE5"/>
<path d="M51.3092 21.2902H36.1111V36.1117H51.3092V21.2902Z" fill="#A7F3D0"/>
<path d="M72.2221 36.1116C72.2482 45.3067 68.7409 54.1606 62.425 60.8434C58.847 64.6377 54.4924 67.6151 49.6585 69.5724C44.8245 71.5296 39.6251 72.4206 34.4153 72.1844C27.4253 71.8558 20.6813 69.5033 15.0034 65.4129C9.32553 61.3225 4.95842 55.6705 2.43311 49.1442C-0.0921896 42.6179 -0.666887 35.4984 0.778906 28.6515C2.2247 21.8046 5.62869 15.5253 10.577 10.5771C16.9341 4.21937 25.4342 0.461595 34.4149 0.0385887C43.3957 -0.384417 52.2113 2.55777 59.1379 8.28982C59.8694 7.76698 60.7662 7.52838 61.6608 7.61859C62.5554 7.7088 63.3866 8.12166 63.9989 8.78001C64.6113 9.43837 64.9631 10.2972 64.9884 11.196C65.0137 12.0948 64.711 12.972 64.1367 13.6638C63.5624 14.3557 62.7558 14.8147 61.8677 14.9552C60.9796 15.0957 60.0708 14.908 59.311 14.4272C58.5512 13.9464 57.9924 13.2054 57.7391 12.3427C57.4859 11.48 57.5553 10.5545 57.9346 9.73931C50.2163 3.3334 40.0989 0.597701 29.7542 2.45416C25.1206 3.28558 20.7203 5.10451 16.8521 7.78739C5.65203 15.5624 0.160627 28.53 2.36372 41.9434C3.18838 46.96 5.15912 51.7186 8.12266 55.8493C16.0483 66.8926 29.0985 72.1844 42.5205 69.7602C47.1532 68.9223 51.5511 67.0965 55.415 64.4068C64.9571 57.7623 70.338 47.3533 70.338 36.1116C70.3494 31.4509 69.4006 26.8378 67.5509 22.5599C67.4509 22.3309 67.4461 22.0716 67.5373 21.8389C67.6286 21.6063 67.8086 21.4195 68.0376 21.3196C68.2666 21.2196 68.5259 21.2148 68.7586 21.306C68.9912 21.3973 69.178 21.5773 69.2779 21.8063C71.2317 26.3218 72.2339 31.1915 72.2221 36.1116Z" fill="#34D399"/>
</g>
<path d="M98.0557 56.1111C96.1668 56.1111 94.4076 55.7037 92.7779 54.8889C91.1853 54.0371 89.9631 53.0185 89.1113 51.8334V55.5556H83.0001V13.8889H89.1113V31.5C89.9631 30.3148 91.1853 29.3148 92.7779 28.5C94.4076 27.6482 96.1668 27.2222 98.0557 27.2222C101.833 27.2222 105 28.6296 107.556 31.4445C110.148 34.2593 111.445 37.6667 111.445 41.6667C111.445 45.6667 110.148 49.0741 107.556 51.8889C105 54.7037 101.833 56.1111 98.0557 56.1111ZM96.9446 50.5556C99.352 50.5556 101.333 49.7037 102.889 48C104.445 46.2963 105.222 44.1852 105.222 41.6667C105.222 39.1482 104.445 37.0371 102.889 35.3333C101.333 33.6296 99.352 32.7778 96.9446 32.7778C94.5002 32.7778 92.5001 33.6296 90.9446 35.3333C89.389 37.0371 88.6113 39.1482 88.6113 41.6667C88.6113 44.1852 89.389 46.2963 90.9446 48C92.5001 49.7037 94.5002 50.5556 96.9446 50.5556ZM129.946 56.1111C125.798 56.1111 122.39 54.7593 119.724 52.0556C117.057 49.3148 115.724 45.8519 115.724 41.6667C115.724 37.4815 117.038 34.0371 119.668 31.3333C122.298 28.5926 125.742 27.2222 130.001 27.2222C134.298 27.2222 137.761 28.7222 140.39 31.7222C143.02 34.6852 144.187 38.5 143.89 43.1667H121.779C121.853 45.3148 122.668 47.1111 124.224 48.5556C125.779 50 127.761 50.7222 130.168 50.7222C133.576 50.7222 135.909 49.4259 137.168 46.8333H143.557C142.705 49.5371 141.076 51.7593 138.668 53.5C136.261 55.2408 133.353 56.1111 129.946 56.1111ZM129.835 32.3333C127.835 32.3333 126.113 32.9074 124.668 34.0556C123.261 35.1667 122.353 36.7593 121.946 38.8333H137.335C136.89 36.6852 135.983 35.0741 134.613 34C133.242 32.8889 131.65 32.3333 129.835 32.3333ZM150.166 55.5556V27.7778H156.277V32.7222C156.796 31.1667 157.74 29.9074 159.11 28.9445C160.518 27.9815 162.018 27.5 163.61 27.5C164.573 27.5 165.37 27.5741 165.999 27.7222V34C165.11 33.6667 164.092 33.5 162.944 33.5C161.092 33.5 159.518 34.2593 158.222 35.7778C156.925 37.2593 156.277 39.3333 156.277 42V55.5556H150.166ZM171.271 55.5556V27.7778H177.382V32.7222C177.9 31.1667 178.845 29.9074 180.215 28.9445C181.622 27.9815 183.122 27.5 184.715 27.5C185.678 27.5 186.474 27.5741 187.104 27.7222V34C186.215 33.6667 185.196 33.5 184.048 33.5C182.196 33.5 180.622 34.2593 179.326 35.7778C178.03 37.2593 177.382 39.3333 177.382 42V55.5556H171.271ZM201.264 67.1667H194.542L200.486 54.0556L188.542 27.7778H195.264L203.764 47.4445L212.32 27.7778H219.097L201.264 67.1667ZM223.354 55.5556V13.8889H229.465V55.5556H223.354ZM249.955 56.1111C245.806 56.1111 242.399 54.7593 239.732 52.0556C237.066 49.3148 235.732 45.8519 235.732 41.6667C235.732 37.4815 237.047 34.0371 239.677 31.3333C242.306 28.5926 245.751 27.2222 250.01 27.2222C254.306 27.2222 257.769 28.7222 260.399 31.7222C263.029 34.6852 264.195 38.5 263.899 43.1667H241.788C241.862 45.3148 242.677 47.1111 244.232 48.5556C245.788 50 247.769 50.7222 250.177 50.7222C253.584 50.7222 255.918 49.4259 257.177 46.8333H263.566C262.714 49.5371 261.084 51.7593 258.677 53.5C256.269 55.2408 253.362 56.1111 249.955 56.1111ZM249.843 32.3333C247.843 32.3333 246.121 32.9074 244.677 34.0556C243.269 35.1667 242.362 36.7593 241.955 38.8333H257.343C256.899 36.6852 255.992 35.0741 254.621 34C253.251 32.8889 251.658 32.3333 249.843 32.3333ZM281.564 56.1111C277.786 56.1111 274.601 54.7037 272.008 51.8889C269.452 49.0741 268.175 45.6667 268.175 41.6667C268.175 37.6667 269.452 34.2593 272.008 31.4445C274.601 28.6296 277.786 27.2222 281.564 27.2222C283.452 27.2222 285.193 27.6482 286.786 28.5C288.378 29.3148 289.601 30.3148 290.452 31.5V27.7778H296.564V55.5556H290.452V51.8334C289.601 53.0185 288.378 54.0371 286.786 54.8889C285.193 55.7037 283.452 56.1111 281.564 56.1111ZM276.73 48C278.286 49.7037 280.267 50.5556 282.675 50.5556C285.082 50.5556 287.064 49.7037 288.619 48C290.175 46.2963 290.952 44.1852 290.952 41.6667C290.952 39.1482 290.175 37.0371 288.619 35.3333C287.064 33.6296 285.082 32.7778 282.675 32.7778C280.267 32.7778 278.286 33.6296 276.73 35.3333C275.175 37.0371 274.397 39.1482 274.397 41.6667C274.397 44.1852 275.175 46.2963 276.73 48ZM307.454 55.5556V33.2222H301.676V27.7778H307.454V23.1111C307.454 20.1111 308.343 17.7778 310.12 16.1111C311.898 14.4074 314.176 13.5556 316.954 13.5556C318.657 13.5556 320.176 13.7778 321.509 14.2222V19.6667C320.657 19.2963 319.565 19.1111 318.231 19.1111C316.602 19.1111 315.417 19.4815 314.676 20.2222C313.935 20.9259 313.565 22.1296 313.565 23.8333V27.7778H321.509V33.2222H313.565V55.5556H307.454Z" fill="#0F172A"/>
<defs>
<clipPath id="clip0_445_41">
<rect width="72.2222" height="72.2222" fill="white"/>
</clipPath>
</defs>
</svg>
