<svg width="399" height="91" viewBox="0 0 399 91" fill="none" xmlns="http://www.w3.org/2000/svg">
<g clip-path="url(#clip0_3_64)">
<path d="M21.697 21.8309C25.5988 17.8825 30.4569 15.0915 35.7403 13.6991C39.0205 12.8346 41.6924 10.0981 41.6924 6.70592V6.70592C41.6924 3.05137 38.6249 0.0904702 35.0423 0.812232C26.6431 2.50437 18.8709 6.65828 12.7442 12.8228C5.02698 20.5876 0.480236 30.9792 0 41.9497H12.6657C13.1208 34.3556 16.3352 27.195 21.697 21.8309Z" fill="#34D399"/>
<path d="M65.6067 66.0115C61.3828 70.2622 56.0298 73.1965 50.1898 74.4624C44.3498 75.7283 38.2708 75.272 32.6821 73.1484C27.0934 71.0248 22.2323 67.3239 18.6818 62.4898C15.1314 57.6556 13.0425 51.8935 12.6657 45.8947H0C0.375183 54.4162 3.2066 62.6438 8.14898 69.5742C13.0914 76.5046 19.9312 81.8383 27.8343 84.9248C35.7374 88.0114 44.3624 88.7175 52.6575 86.957C60.9526 85.1965 68.5594 81.0455 74.5502 75.0102C80.7042 68.8328 84.844 60.9833 86.5145 52.5008C87.216 48.9392 84.2746 45.8947 80.6446 45.8947V45.8947C77.2716 45.8947 74.5499 48.5512 73.7069 51.8171C72.3282 57.1582 69.5472 62.0699 65.6067 66.0115Z" fill="#34D399"/>
<path d="M107.303 66.171C103.401 70.1182 98.5444 72.9088 93.2622 74.3016C89.9806 75.167 87.3076 77.9048 87.3076 81.2986V81.2986C87.3076 84.955 90.3765 87.9175 93.9608 87.1954C102.359 85.5034 110.13 81.3502 116.256 75.1866C123.973 67.422 128.52 57.0304 129 46.0599H116.334C115.877 53.6511 112.662 60.8083 107.303 66.171Z" fill="#34D399"/>
<path d="M63.3914 21.9885C67.6156 17.738 72.9689 14.8039 78.8091 13.5382C84.6493 12.2725 90.7285 12.7289 96.3173 14.8527C101.906 16.9765 106.767 20.6775 110.318 25.5118C113.868 30.346 115.957 36.1083 116.334 42.1073H129C128.506 30.792 123.692 20.105 115.559 12.2737C107.427 4.44248 96.6048 0.0712891 85.3481 0.0712891C74.0915 0.0712891 63.2691 4.44248 55.1368 12.2737C48.6089 18.5599 44.2188 26.6862 42.4853 35.5004C41.7847 39.0624 44.7258 42.1073 48.356 42.1073V42.1073C51.7287 42.1073 54.4502 39.451 55.2929 36.1854C56.6712 30.8437 59.4516 25.9313 63.3914 21.9885Z" fill="#34D399"/>
</g>
<path d="M153.44 28.78C152.4 28.78 151.52 28.42 150.8 27.7C150.08 26.98 149.72 26.1 149.72 25.06C149.72 24.02 150.08 23.14 150.8 22.42C151.52 21.7 152.4 21.34 153.44 21.34C154.44 21.34 155.28 21.7 155.96 22.42C156.68 23.14 157.04 24.02 157.04 25.06C157.04 26.1 156.68 26.98 155.96 27.7C155.28 28.42 154.44 28.78 153.44 28.78ZM156.08 34.12V67H150.62V34.12H156.08ZM181.406 33.52C185.406 33.52 188.646 34.74 191.126 37.18C193.606 39.58 194.846 43.06 194.846 47.62V67H189.446V48.4C189.446 45.12 188.626 42.62 186.986 40.9C185.346 39.14 183.106 38.26 180.266 38.26C177.386 38.26 175.086 39.16 173.366 40.96C171.686 42.76 170.846 45.38 170.846 48.82V67H165.386V34.12H170.846V38.8C171.926 37.12 173.386 35.82 175.226 34.9C177.106 33.98 179.166 33.52 181.406 33.52ZM217.145 38.62H210.245V67H204.785V38.62H200.525V34.12H204.785V31.78C204.785 28.1 205.725 25.42 207.605 23.74C209.525 22.02 212.585 21.16 216.785 21.16V25.72C214.385 25.72 212.685 26.2 211.685 27.16C210.725 28.08 210.245 29.62 210.245 31.78V34.12H217.145V38.62ZM226.331 28.78C225.291 28.78 224.411 28.42 223.691 27.7C222.971 26.98 222.611 26.1 222.611 25.06C222.611 24.02 222.971 23.14 223.691 22.42C224.411 21.7 225.291 21.34 226.331 21.34C227.331 21.34 228.171 21.7 228.851 22.42C229.571 23.14 229.931 24.02 229.931 25.06C229.931 26.1 229.571 26.98 228.851 27.7C228.171 28.42 227.331 28.78 226.331 28.78ZM228.971 34.12V67H223.511V34.12H228.971ZM236.236 50.5C236.236 47.1 236.916 44.14 238.276 41.62C239.636 39.06 241.516 37.08 243.916 35.68C246.356 34.28 249.136 33.58 252.256 33.58C256.296 33.58 259.616 34.56 262.216 36.52C264.856 38.48 266.596 41.2 267.436 44.68H261.556C260.996 42.68 259.896 41.1 258.256 39.94C256.656 38.78 254.656 38.2 252.256 38.2C249.136 38.2 246.616 39.28 244.696 41.44C242.776 43.56 241.816 46.58 241.816 50.5C241.816 54.46 242.776 57.52 244.696 59.68C246.616 61.84 249.136 62.92 252.256 62.92C254.656 62.92 256.656 62.36 258.256 61.24C259.856 60.12 260.956 58.52 261.556 56.44H267.436C266.556 59.8 264.796 62.5 262.156 64.54C259.516 66.54 256.216 67.54 252.256 67.54C249.136 67.54 246.356 66.84 243.916 65.44C241.516 64.04 239.636 62.06 238.276 59.5C236.916 56.94 236.236 53.94 236.236 50.5ZM280.182 39.46C281.142 37.58 282.502 36.12 284.262 35.08C286.062 34.04 288.242 33.52 290.802 33.52V39.16H289.362C283.242 39.16 280.182 42.48 280.182 49.12V67H274.722V34.12H280.182V39.46ZM327.104 49.3C327.104 50.34 327.044 51.44 326.924 52.6H300.644C300.844 55.84 301.944 58.38 303.944 60.22C305.984 62.02 308.444 62.92 311.324 62.92C313.684 62.92 315.644 62.38 317.204 61.3C318.804 60.18 319.924 58.7 320.564 56.86H326.444C325.564 60.02 323.804 62.6 321.164 64.6C318.524 66.56 315.244 67.54 311.324 67.54C308.204 67.54 305.404 66.84 302.924 65.44C300.484 64.04 298.564 62.06 297.164 59.5C295.764 56.9 295.064 53.9 295.064 50.5C295.064 47.1 295.744 44.12 297.104 41.56C298.464 39 300.364 37.04 302.804 35.68C305.284 34.28 308.124 33.58 311.324 33.58C314.444 33.58 317.204 34.26 319.604 35.62C322.004 36.98 323.844 38.86 325.124 41.26C326.444 43.62 327.104 46.3 327.104 49.3ZM321.464 48.16C321.464 46.08 321.004 44.3 320.084 42.82C319.164 41.3 317.904 40.16 316.304 39.4C314.744 38.6 313.004 38.2 311.084 38.2C308.324 38.2 305.964 39.08 304.004 40.84C302.084 42.6 300.984 45.04 300.704 48.16H321.464ZM332.271 50.44C332.271 47.08 332.951 44.14 334.311 41.62C335.671 39.06 337.531 37.08 339.891 35.68C342.291 34.28 344.951 33.58 347.871 33.58C350.751 33.58 353.251 34.2 355.371 35.44C357.491 36.68 359.071 38.24 360.111 40.12V34.12H365.631V67H360.111V60.88C359.031 62.8 357.411 64.4 355.251 65.68C353.131 66.92 350.651 67.54 347.811 67.54C344.891 67.54 342.251 66.82 339.891 65.38C337.531 63.94 335.671 61.92 334.311 59.32C332.951 56.72 332.271 53.76 332.271 50.44ZM360.111 50.5C360.111 48.02 359.611 45.86 358.611 44.02C357.611 42.18 356.251 40.78 354.531 39.82C352.851 38.82 350.991 38.32 348.951 38.32C346.911 38.32 345.051 38.8 343.371 39.76C341.691 40.72 340.351 42.12 339.351 43.96C338.351 45.8 337.851 47.96 337.851 50.44C337.851 52.96 338.351 55.16 339.351 57.04C340.351 58.88 341.691 60.3 343.371 61.3C345.051 62.26 346.911 62.74 348.951 62.74C350.991 62.74 352.851 62.26 354.531 61.3C356.251 60.3 357.611 58.88 358.611 57.04C359.611 55.16 360.111 52.98 360.111 50.5ZM392.018 67L384.218 54.76L376.718 67H371.018L381.638 50.68L371.018 34.12H377.198L384.998 46.3L392.438 34.12H398.138L387.578 50.38L398.198 67H392.018Z" fill="#18191A"/>
<defs>
<clipPath id="clip0_3_64">
<rect width="129" height="88" fill="white"/>
</clipPath>
</defs>
</svg>
